<svg width="1600" height="900" viewBox="0 0 1600 900" fill="none" xmlns="http://www.w3.org/2000/svg">
  <rect width="1600" height="900" rx="32" fill="#08111F"/>
  <rect x="64" y="64" width="1472" height="772" rx="28" fill="#0F1D33" stroke="#D7A63A" stroke-opacity="0.35" stroke-width="2"/>
  <circle cx="250" cy="250" r="160" fill="#D7A63A" fill-opacity="0.14"/>
  <circle cx="1338" cy="670" r="210" fill="#E6B84C" fill-opacity="0.1"/>
  
  <!-- Illustrative Cargo Box/Container lines or shapes -->
  <rect x="350" y="300" width="300" height="300" rx="16" fill="#12304D" stroke="#D7A63A" stroke-opacity="0.5" stroke-width="6"/>
  <line x1="350" y1="450" x2="650" y2="450" stroke="#D7A63A" stroke-opacity="0.5" stroke-width="6"/>
  <line x1="500" y1="300" x2="500" y2="600" stroke="#D7A63A" stroke-opacity="0.5" stroke-width="6"/>
  
  <rect x="700" y="350" width="220" height="220" rx="12" fill="#0C2138" stroke="#D7A63A" stroke-opacity="0.4" stroke-width="4"/>
  <line x1="700" y1="460" x2="920" y2="460" stroke="#D7A63A" stroke-opacity="0.4" stroke-width="4"/>
  <line x1="810" y1="350" x2="810" y2="570" stroke="#D7A63A" stroke-opacity="0.4" stroke-width="4"/>

  <!-- Ship/Ocean Freight waves or indicators -->
  <path d="M240 650C340 680 440 620 540 650C640 680 740 620 840 650C940 680 1040 620 1140 650C1240 680 1340 620 1440 650" stroke="#D7A63A" stroke-width="12" stroke-linecap="round" stroke-linejoin="round"/>
  
  <rect x="220" y="710" width="1120" height="56" rx="18" fill="#0B1628" stroke="#D7A63A" stroke-opacity="0.2"/>
  <circle cx="278" cy="738" r="16" fill="#D7A63A"/>
  <circle cx="420" cy="738" r="16" fill="#8C4C1F" fill-opacity="0.35"/>
  <circle cx="562" cy="738" r="16" fill="#D7A63A" fill-opacity="0.7"/>
  <circle cx="704" cy="738" r="16" fill="#8C4C1F" fill-opacity="0.35"/>
  <circle cx="846" cy="738" r="16" fill="#D7A63A"/>
  <circle cx="988" cy="738" r="16" fill="#8C4C1F" fill-opacity="0.35"/>
  <circle cx="1130" cy="738" r="16" fill="#D7A63A" fill-opacity="0.7"/>
  
  <text x="118" y="120" fill="#F4E7BE" font-family="Arial, Helvetica, sans-serif" font-size="38" font-weight="700">Commercial Cargo from Pakistan</text>
  <text x="118" y="160" fill="#D7A63A" font-family="Arial, Helvetica, sans-serif" font-size="24" font-weight="600">The Complete Export Shipping Guide 2026</text>
</svg>
