<svg width="1200" height="630" viewBox="0 0 1200 630" xmlns="http://www.w3.org/2000/svg">
  <!-- Background -->
  <rect width="1200" height="630" fill="#1a5276"/>
  
  <!-- Decorative elements -->
  <circle cx="100" cy="100" r="200" fill="#2e86c1" opacity="0.3"/>
  <circle cx="1100" cy="530" r="180" fill="#2e86c1" opacity="0.3"/>
  
  <!-- Airplane icon -->
  <g transform="translate(480, 180)">
    <path d="M120 80 L180 100 L120 120 L100 100 Z" fill="#f59e0b"/>
    <rect x="100" y="95" width="30" height="10" fill="#f59e0b"/>
    <path d="M130 85 L140 60 L145 85 Z" fill="#f59e0b"/>
    <path d="M130 115 L140 140 L145 115 Z" fill="#f59e0b"/>
    <path d="M100 100 L60 90 L60 110 L100 100 Z" fill="#f59e0b"/>
  </g>
  
  <!-- Speed lines -->
  <line x1="400" y1="200" x2="350" y2="200" stroke="#f59e0b" stroke-width="3" opacity="0.6"/>
  <line x1="390" y1="210" x2="340" y2="210" stroke="#f59e0b" stroke-width="3" opacity="0.6"/>
  <line x1="380" y1="220" x2="330" y2="220" stroke="#f59e0b" stroke-width="3" opacity="0.6"/>
  
  <line x1="800" y1="200" x2="850" y2="200" stroke="#f59e0b" stroke-width="3" opacity="0.6"/>
  <line x1="810" y1="210" x2="860" y2="210" stroke="#f59e0b" stroke-width="3" opacity="0.6"/>
  <line x1="820" y1="220" x2="870" y2="220" stroke="#f59e0b" stroke-width="3" opacity="0.6"/>
  
  <!-- Title -->
  <text x="600" y="320" font-family="Arial, sans-serif" font-size="42" fill="#ffffff" text-anchor="middle" font-weight="bold">Express Cargo from Pakistan</text>
  <text x="600" y="370" font-family="Arial, sans-serif" font-size="28" fill="#f59e0b" text-anchor="middle">Fastest International Shipping in 24–72 Hours</text>
  
  <!-- Key points -->
  <g transform="translate(200, 420)">
    <rect x="0" y="0" width="800" height="140" rx="10" fill="#ffffff" opacity="0.1"/>
    
    <circle cx="50" cy="35" r="8" fill="#f59e0b"/>
    <text x="70" y="40" font-family="Arial, sans-serif" font-size="18" fill="#ffffff">24–72 Hours Delivery to UK, Canada, UAE, Australia</text>
    
    <circle cx="50" cy="70" r="8" fill="#f59e0b"/>
    <text x="70" y="75" font-family="Arial, sans-serif" font-size="18" fill="#ffffff">Same-Day Pickup from Karachi, Lahore, Islamabad</text>
    
    <circle cx="50" cy="105" r="8" fill="#f59e0b"/>
    <text x="70" y="110" font-family="Arial, sans-serif" font-size="18" fill="#ffffff">24/7 Booking — WhatsApp Response Within Minutes</text>
  </g>
  
  <!-- Footer -->
  <text x="600" y="590" font-family="Arial, sans-serif" font-size="16" fill="#ffffff" text-anchor="middle" opacity="0.7">Complete Guide 2026 — Best Int'l Movers</text>
</svg>
